<svg width="100" height="100" viewBox="0 0 100 100" fill="none" xmlns="http://www.w3.org/2000/svg">
<g clip-path="url(#clip0_81_2)">
<path d="M49.9882 16.0441L58.2026 24.2581L49.9882 32.4703L41.7749 24.2581L49.9882 16.0441ZM66.1378 24.2581L49.9882 8.11149L33.8401 24.2581L49.9882 40.4066L66.1378 24.2581Z" fill="#8A0194"/>
<path d="M38.1041 66.3254H29.8841H21.6633V49.8772L15.9233 55.6183V70.725V71.801H21.6633H29.8841H38.1041H43.8445V70.725V55.6183L38.1041 49.8772V66.3254Z" fill="#8A0194"/>
<path d="M78.3131 66.3254H70.0934H61.8734V49.8772L56.1338 55.6183V70.725V71.801H61.8734H70.0934H78.3131H84.0542V70.725V55.6183L78.3131 49.8772V66.3254Z" fill="#8A0194"/>
<path d="M49.9882 48.4628L29.7379 28.2125L7.0188 50.7171L15.3226 50.7235C20.1713 45.7609 25.0017 40.8813 29.9155 35.9727L49.9882 56.048L70.0621 35.9727C74.9763 40.8813 79.8067 45.7609 84.655 50.7235L92.9592 50.7171L70.24 28.2125L49.9882 48.4628Z" fill="#FF8904"/>
</g>
<path d="M17.8248 87.8708V88H16.1617C15.9033 88 15.7096 87.9623 15.5804 87.887C15.4512 87.8116 15.3167 87.6663 15.1767 87.451L12.7062 83.4627C12.5555 83.2151 12.4264 83.0644 12.3187 83.0106C12.2218 82.946 12.0442 82.9137 11.7859 82.9137H10.591V87.7416L11.9958 87.8708V88H8.02363V87.8708L9.34768 87.7416V77.117L8.02363 76.9878V76.8586H12.1088C13.379 76.8586 14.3479 77.117 15.0153 77.6337C15.6827 78.1396 16.0164 78.877 16.0164 79.8458C16.0164 80.5993 15.8118 81.2183 15.4028 81.7027C14.9937 82.1871 14.4017 82.5208 13.6266 82.7038H13.6428L16.5977 87.3218C16.7376 87.5371 16.8722 87.6824 17.0013 87.7578C17.1413 87.8331 17.3404 87.8708 17.5988 87.8708H17.8248ZM10.591 77.0524V82.6715H12.0604C12.9215 82.6715 13.5567 82.4455 13.9657 81.9933C14.3855 81.5305 14.5954 80.8254 14.5954 79.8781C14.5954 78.92 14.3855 78.2096 13.9657 77.7467C13.5459 77.2838 12.9108 77.0524 12.0604 77.0524H10.591ZM26.2577 84.6091L25.854 88H17.942V87.8708L19.2661 87.7416V77.117L17.942 76.9878V76.8586H25.8702L26.0962 79.8942L25.9348 79.9104L25.0305 77.6498C24.9336 77.4022 24.826 77.2408 24.7076 77.1654C24.5999 77.0901 24.4169 77.0524 24.1586 77.0524H20.5094V82.0095H22.8991C23.1575 82.0095 23.3405 81.9664 23.4481 81.8803C23.5558 81.7942 23.6311 81.6273 23.6742 81.3798L23.9487 80.0719H24.1424V84.2055H23.9487L23.6742 82.8976C23.6311 82.65 23.5558 82.4831 23.4481 82.397C23.3405 82.3109 23.1575 82.2678 22.8991 82.2678H20.5094V87.8062H24.1263C24.3846 87.8062 24.573 87.7686 24.6914 87.6932C24.8098 87.6071 24.9175 87.4456 25.0144 87.2088L26.0801 84.593L26.2577 84.6091ZM38.808 76.8586V76.9878L37.6454 77.117C37.3871 77.1493 37.2149 77.2138 37.1287 77.3107C37.0426 77.4076 36.9996 77.5852 36.9996 77.8436V88.2584H36.8381L29.5881 77.9727H29.5235V87.015C29.5235 87.2734 29.5558 87.4564 29.6204 87.564C29.685 87.6609 29.8142 87.7201 30.0079 87.7416L31.1544 87.8708V88H27.6182V87.8708L28.7808 87.7416C28.9745 87.7201 29.1037 87.6609 29.1683 87.564C29.2329 87.4564 29.2652 87.2734 29.2652 87.015V77.6175L29.2006 77.5206C29.0499 77.3053 28.9046 77.1654 28.7646 77.1008C28.6355 77.0255 28.4417 76.9878 28.1833 76.9878H27.9088V76.8586H30.3147L36.6766 85.7717H36.7412V77.8436C36.7412 77.5852 36.7089 77.4022 36.6443 77.2946C36.5797 77.1869 36.4506 77.1277 36.2568 77.117L34.9489 76.9878V76.8586H38.808ZM43.7389 87.7416V77.0362H41.6075C41.3492 77.0362 41.1608 77.0793 41.0424 77.1654C40.9239 77.2408 40.8109 77.4022 40.7033 77.6498L39.5891 80.1364L39.46 80.1041L40.0897 76.6003H40.1866C40.4234 76.7079 40.6225 76.7779 40.784 76.8102C40.9562 76.8425 41.1715 76.8586 41.4299 76.8586H47.6465C47.9048 76.8586 48.1147 76.8425 48.2762 76.8102C48.4484 76.7779 48.653 76.7079 48.8898 76.6003H48.9867L49.3419 80.1041L49.2127 80.1364L48.2116 77.6498C48.1147 77.4022 48.0071 77.2408 47.8887 77.1654C47.781 77.0793 47.598 77.0362 47.3397 77.0362H44.9822V87.7416L46.7261 87.8708V88H41.995V87.8708L43.7389 87.7416ZM62.2572 84.6091L61.8535 88H53.9415V87.8708L55.2655 87.7416V77.117L53.9415 76.9878V76.8586H61.8696L62.0957 79.8942L61.9342 79.9104L61.03 77.6498C60.9331 77.4022 60.8255 77.2408 60.7071 77.1654C60.5994 77.0901 60.4164 77.0524 60.1581 77.0524H56.5089V82.0095H58.8986C59.157 82.0095 59.34 81.9664 59.4476 81.8803C59.5552 81.7942 59.6306 81.6273 59.6737 81.3798L59.9482 80.0719H60.1419V84.2055H59.9482L59.6737 82.8976C59.6306 82.65 59.5552 82.4831 59.4476 82.397C59.34 82.3109 59.157 82.2678 58.8986 82.2678H56.5089V87.8062H60.1258C60.3841 87.8062 60.5725 87.7686 60.6909 87.6932C60.8093 87.6071 60.917 87.4456 61.0139 87.2088L62.0796 84.593L62.2572 84.6091ZM74.0809 87.8708V88H70.1249V87.8708L71.4489 87.7094L69.9311 83.5757H66.0236L64.6834 87.1442C64.6403 87.2626 64.6188 87.3595 64.6188 87.4349C64.6188 87.5533 64.6511 87.6394 64.7157 87.6932C64.791 87.7363 64.9202 87.7686 65.1032 87.7901L66.0882 87.8708V88H62.6489V87.8708L63.5531 87.7901C63.8222 87.7686 64.0106 87.7147 64.1182 87.6286C64.2366 87.5425 64.3389 87.381 64.425 87.1442L68.381 76.6003H68.6717L72.7407 87.7094L74.0809 87.8708ZM69.8342 83.3174L68.0258 78.3926H67.9612L66.1205 83.3174H69.8342ZM80.0908 87.8385C79.5634 88.1184 78.9659 88.2584 78.2985 88.2584C77.7926 88.2584 77.3028 88.1776 76.8291 88.0161C76.3555 87.8654 75.9518 87.6501 75.6181 87.3703L75.279 88.2584H75.0691L74.8592 84.3992L75.0045 84.3669C75.166 85.0989 75.3275 85.6695 75.489 86.0785C75.6612 86.4876 75.8819 86.8428 76.151 87.1442C76.7 87.7578 77.4266 88.0646 78.3308 88.0646C79.1059 88.0646 79.7087 87.8654 80.1393 87.4672C80.5806 87.0581 80.8013 86.5091 80.8013 85.8202C80.8013 85.3358 80.6829 84.9267 80.4461 84.593C80.22 84.2593 79.9078 83.974 79.5095 83.7372C79.1112 83.5004 78.5515 83.2259 77.8303 82.9137C77.2382 82.6554 76.743 82.4024 76.3447 82.1548C75.9464 81.8965 75.6127 81.5681 75.3436 81.1698C75.0853 80.7608 74.9561 80.2656 74.9561 79.6843C74.9561 79.0923 75.096 78.5648 75.3759 78.1019C75.6666 77.6283 76.0595 77.2623 76.5547 77.0039C77.0606 76.7348 77.6311 76.6003 78.2662 76.6003C78.7076 76.6003 79.1166 76.6756 79.4934 76.8263C79.8809 76.977 80.2954 77.2246 80.7367 77.5691L81.1242 76.794H81.3341L81.4956 80.3141L81.3341 80.3625C81.1619 79.6413 80.9412 79.0062 80.6721 78.4572C80.1339 77.3484 79.3104 76.794 78.2016 76.794C77.5342 76.794 77.0014 76.9878 76.6031 77.3753C76.2048 77.7521 76.0057 78.2688 76.0057 78.9254C76.0057 79.3991 76.1133 79.7974 76.3286 80.1203C76.5547 80.4432 76.8614 80.7231 77.249 80.9599C77.6473 81.1968 78.207 81.482 78.9283 81.8157C79.5741 82.1064 80.0908 82.3809 80.4784 82.6392C80.8766 82.8976 81.1942 83.2205 81.431 83.608C81.6786 83.9848 81.8024 84.4531 81.8024 85.0128C81.8024 85.6372 81.6517 86.1969 81.3503 86.6921C81.0489 87.1765 80.6291 87.5587 80.0908 87.8385ZM92.9726 76.8586V76.9878L92.0683 77.0685C91.81 77.0901 91.627 77.1439 91.5193 77.23C91.4225 77.3053 91.3148 77.4668 91.1964 77.7144L88.3868 83.5757V87.7416L89.7916 87.8708V88H85.7387V87.8708L87.1435 87.7416V83.6565L83.6396 77.117L82.3156 76.9878V76.8586H86.3362V76.9878L84.9314 77.117L88.2092 83.2367H88.2899L90.938 77.7144C90.9811 77.6175 91.0026 77.5153 91.0026 77.4076C91.0026 77.3 90.965 77.2192 90.8896 77.1654C90.8143 77.1116 90.6905 77.0793 90.5182 77.0685L89.5333 76.9878V76.8586H92.9726Z" fill="#8A0194"/>
<defs>
<clipPath id="clip0_81_2">
<rect width="100" height="80" fill="white"/>
</clipPath>
</defs>
</svg>
